<?xml version="1.0" encoding="utf-8"?>
<!-- Generator: Adobe Illustrator 21.1.0, SVG Export Plug-In . SVG Version: 6.00 Build 0)  -->
<svg version="1.1" id="Calque_1" xmlns="http://www.w3.org/2000/svg" xmlns:xlink="http://www.w3.org/1999/xlink" x="0px" y="0px"
	 viewBox="0 0 865.6 86.6" style="enable-background:new 0 0 865.6 86.6;" xml:space="preserve">
<style type="text/css">
	.st0{fill:#1259DC;}
	.st1{fill:#FFFFFF;}
</style>
<g>
	<path class="st0" d="M15.6,59.9c0.4,0.3,0.5,0.7,0.5,1.2v7.2c0,0.5-0.2,0.9-0.5,1.3c-0.4,0.3-0.8,0.5-1.4,0.5H9.8H9.7H2.2
		c-0.6,0-1.1-0.2-1.6-0.6C0.2,69.1,0,68.7,0,68.1v-4V64V26.6v-4.7c0-0.5,0.2-0.9,0.5-1.2c0.4-0.3,0.8-0.5,1.4-0.5h8.1
		c0.5,0,1,0.2,1.4,0.5c0.4,0.3,0.5,0.7,0.5,1.2v8.3v25.6c0,1.4,0,2.3,0.1,2.8c0.1,0.5,0.6,0.8,1.5,0.8h0.6h0.1
		C14.8,59.4,15.3,59.6,15.6,59.9z"/>
	<path class="st0" d="M44.7,29.6c3.1,0,5.8,0.3,8,0.9c2.2,0.6,4,1.4,5.4,2.5c1.4,1.1,2.5,2.3,3.3,3.8c0.8,1.5,1.4,3.1,1.7,4.9
		c0.4,1.8,0.6,3.7,0.6,5.7c0,2,0,4.1,0,6.3H34c0.2,1.2,0.5,2.2,0.9,3.2c0.4,1,1.1,1.8,1.9,2.5c0.8,0.7,1.9,1.2,3.2,1.6
		c1.3,0.4,2.9,0.5,4.8,0.5c1.7,0,3-0.1,4.2-0.2c1.1-0.2,2.1-0.4,2.9-0.7c0.8-0.3,1.6-0.6,2.3-1c0.7-0.4,1.4-0.9,2.3-1.4
		c0.5-0.3,0.9-0.5,1.4-0.5c0.4,0,0.8,0.3,1.1,0.7l3.4,4.3c0.5,0.6,0.8,1.1,0.9,1.4c0.1,0.3-0.2,0.7-1,1.2c-0.1,0.1-0.2,0.1-0.2,0.2
		c-1.3,0.9-2.6,1.7-3.8,2.3c-1.2,0.6-2.4,1.1-3.7,1.4c-1.3,0.4-2.7,0.6-4.3,0.8c-1.5,0.1-3.4,0.2-5.4,0.2c-4.6,0-8.4-0.5-11.3-1.6
		c-2.9-1.1-5.2-2.5-6.8-4.4c-1.6-1.8-2.7-4-3.3-6.4c-0.6-2.4-0.9-5.1-0.9-7.8c0-2.7,0.3-5.3,0.9-7.7c0.6-2.4,1.7-4.6,3.4-6.4
		c1.6-1.8,3.9-3.3,6.8-4.4C36.4,30.2,40.1,29.6,44.7,29.6z M53,45.9c-0.1-1.1-0.2-2.1-0.5-3.1c-0.2-0.9-0.6-1.7-1.2-2.4
		c-0.6-0.7-1.4-1.2-2.5-1.6c-1.1-0.4-2.6-0.6-4.4-0.6c-1.9,0-3.4,0.2-4.6,0.5c-1.2,0.4-2.3,0.9-3.1,1.5c-0.8,0.7-1.4,1.5-1.8,2.4
		c-0.4,0.9-0.7,2-0.8,3.2H53z"/>
</g>
<path class="st0" d="M108.5,24.9c0.7,0,1.2,0.2,1.7,0.6c0.5,0.4,0.7,0.9,0.7,1.5v40.7c0,3.2-0.2,6-0.5,8.4c-0.3,2.4-1,4.3-2.1,5.8
	c-1.1,1.5-2.7,2.7-4.8,3.5c-2.1,0.8-5,1.1-8.6,1.1H89c-0.7,0-1.2-0.2-1.7-0.6c-0.5-0.4-0.7-0.9-0.7-1.5v-7.7c0-0.6,0.2-1.1,0.7-1.5
	c0.4-0.4,1-0.6,1.7-0.6h4.4c0.9,0,1.5-0.1,2-0.4c0.5-0.3,0.8-0.7,1-1.2c0.2-0.5,0.3-1.3,0.4-2.1c0.1-0.9,0.1-1.9,0.1-3.2V27.1
	c0-0.6,0.2-1.1,0.7-1.5c0.5-0.4,1-0.6,1.7-0.6H108.5z M108.5,6c0.7,0,1.2,0.2,1.7,0.6c0.5,0.4,0.7,0.9,0.7,1.5v9.2
	c0,0.6-0.2,1.1-0.7,1.5c-0.5,0.4-1,0.6-1.7,0.6h-9.3c-0.7,0-1.2-0.2-1.7-0.6c-0.5-0.4-0.7-0.9-0.7-1.5V8.1c0-0.6,0.2-1.1,0.7-1.5
	c0.5-0.4,1-0.6,1.7-0.6H108.5z"/>
<path class="st0" d="M119.8,43.8c0-4,0.5-7.5,1.5-10.7c1-3.1,2.7-5.7,4.9-7.8c2.3-2.1,5.2-3.7,8.7-4.8c3.5-1.1,7.9-1.6,13-1.6
	c5,0,9.3,0.6,12.9,1.6c3.6,1.1,6.5,2.7,8.7,4.8c2.3,2.1,3.9,4.7,4.9,7.8c1,3.1,1.5,6.7,1.5,10.7c0,4-0.5,7.6-1.5,10.7
	c-1,3.1-2.7,5.7-4.9,7.9c-2.3,2.1-5.2,3.7-8.7,4.8c-3.6,1.1-7.9,1.6-12.9,1.6c-5.1,0-9.4-0.5-13-1.6c-3.5-1.1-6.4-2.7-8.7-4.8
	c-2.3-2.1-3.9-4.7-4.9-7.9C120.3,51.4,119.8,47.8,119.8,43.8z M161,44.1c0-2-0.2-3.9-0.6-5.6c-0.4-1.7-1.1-3.1-2.1-4.3
	c-1-1.2-2.3-2.1-4-2.8c-1.7-0.7-3.8-1-6.4-1c-2.6,0-4.7,0.3-6.4,1c-1.7,0.7-3,1.6-4,2.8c-1,1.2-1.7,2.6-2.1,4.3
	c-0.4,1.7-0.6,3.6-0.6,5.6c0,2,0.2,3.9,0.6,5.6c0.4,1.7,1.1,3.1,2.1,4.3c1,1.2,2.3,2.2,4,2.8c1.7,0.7,3.8,1,6.4,1
	c2.6,0,4.7-0.4,6.4-1c1.7-0.7,3-1.6,4-2.8c1-1.2,1.7-2.7,2.1-4.3C160.8,48,161,46.2,161,44.1z"/>
<path class="st0" d="M230.1,19.4c0.5,0.4,0.7,0.9,0.7,1.5v1.4v7.2v15c0,4.2-0.3,7.9-1,10.9c-0.7,3-1.9,5.5-3.6,7.5
	c-1.7,1.9-4.1,3.3-7.2,4.2c-3,0.9-6.9,1.4-11.6,1.4c-4.7,0-8.6-0.5-11.7-1.4c-3.1-0.9-5.5-2.3-7.2-4.2c-1.8-1.9-3-4.4-3.7-7.4
	c-0.7-3-1-6.6-1-10.9V29.6v-5.3v-3.4c0-0.6,0.2-1.1,0.7-1.5c0.5-0.4,1-0.6,1.7-0.6h1.4h6.6h1c0.7,0,1.2,0.2,1.7,0.6
	c0.5,0.4,0.7,0.9,0.7,1.5v8.6c0,0,0,0.1-0.1,0.1v15.2c0,1.7,0.1,3.3,0.2,4.7c0.1,1.5,0.5,2.7,1.1,3.7c0.6,1,1.6,1.8,3,2.4
	c1.4,0.6,3.2,0.9,5.7,0.9c2.4,0,4.3-0.3,5.6-0.9c1.3-0.6,2.3-1.4,3-2.4c0.6-1,1-2.3,1.1-3.7c0.1-1.4,0.2-3,0.2-4.7V29.6v-8.6
	c0-0.6,0.2-1.1,0.7-1.5c0.5-0.4,1-0.6,1.7-0.6h1.2h4.2h3.3C229.1,18.8,229.7,19,230.1,19.4z"/>
<path class="st0" d="M269.8,19.3c0.5,0.3,0.8,0.9,0.8,1.6v0.5v8.3v0.4c0,0.6-0.2,1.1-0.7,1.5c-0.5,0.4-1,0.6-1.7,0.6H265
	c-2.4,0.1-4.4,0.5-5.9,1c-1.5,0.5-2.7,1.3-3.6,2.2c-0.9,1-1.4,2.1-1.8,3.5c-0.3,1.4-0.5,3-0.5,4.8v13.9v9.1c0,0.6-0.2,1.1-0.7,1.5
	c-0.5,0.4-1,0.6-1.7,0.6h-10.1c-0.7,0-1.2-0.2-1.7-0.6c-0.5-0.4-0.7-0.9-0.7-1.5v-9.1v-0.2V27.1v-0.1v-6.1c0-0.6,0.2-1.1,0.7-1.5
	c0.5-0.4,1-0.6,1.7-0.6H251c0.7,0,1.2,0.2,1.7,0.6c0.5,0.4,0.7,0.9,0.7,1.5v3.1c0.6-1,1.4-1.9,2.6-2.6c1.1-0.7,2.4-1.2,3.8-1.6
	c1.4-0.4,2.8-0.6,4.3-0.8c1.5-0.1,2.8-0.2,4.1-0.3h0.1l0.1-0.1C268.8,18.8,269.3,19,269.8,19.3z"/>
<path class="st0" d="M307.8,18.5c3.7,0,6.7,0.5,9,1.5c2.3,1,4.1,2.4,5.3,4.1c1.3,1.8,2.1,3.9,2.6,6.5c0.5,2.5,0.7,5.3,0.7,8.3v18.5
	v8.4v0.8c0,0.6-0.2,1.1-0.7,1.5c-0.5,0.4-1,0.6-1.7,0.6h-8.8c-0.7,0-1.2-0.2-1.7-0.6c-0.4-0.4-0.7-0.9-0.7-1.5v-0.8V41.6
	c0-1.5-0.1-2.9-0.3-4.1c-0.2-1.3-0.5-2.4-1.1-3.3c-0.6-0.9-1.5-1.6-2.7-2.1c-1.2-0.5-2.8-0.8-4.9-0.8c-2.4,0-4.3,0.3-5.7,0.8
	c-1.4,0.5-2.5,1.3-3.3,2.2c-0.8,1-1.3,2.1-1.6,3.5c-0.3,1.3-0.4,2.8-0.4,4.4v15.1v0.2v9.2c0,0.6-0.2,1.1-0.7,1.5
	c-0.5,0.4-1,0.6-1.7,0.6h-8.8c-0.7,0-1.2-0.2-1.7-0.6c-0.5-0.4-0.7-0.9-0.7-1.5v-2.9v-6.3V29.9v-9.2v-0.3c0.1-0.5,0.4-1,0.8-1.3
	c0.5-0.4,1-0.5,1.5-0.5h8.8c0.7,0,1.2,0.2,1.7,0.6c0.4,0.4,0.7,0.9,0.7,1.5v3c0.6-0.7,1.2-1.4,1.7-2c0.5-0.6,1.3-1.2,2.3-1.6
	c1-0.5,2.4-0.8,4.2-1.1C302,18.6,304.5,18.5,307.8,18.5z"/>
<path class="st0" d="M382.1,66.6c0,0.7-0.1,1.2-0.2,1.5c-0.1,0.3-0.5,0.5-1,0.6v0.1H377c-2.5,0-4.4-0.5-5.7-1.4
	c-1.3-0.9-2.4-2.3-3.4-4.1c-0.5,1.3-1.2,2.4-2.1,3.1c-0.9,0.7-2.1,1.2-3.5,1.6c-1.4,0.3-3,0.5-4.9,0.6c-1.9,0.1-3.9,0.1-6.2,0.1
	c-3.7,0-6.7-0.4-9.1-1.1c-2.3-0.8-4.2-1.8-5.5-3.1c-1.3-1.3-2.2-2.9-2.7-4.7c-0.5-1.8-0.8-3.8-0.8-5.8c0-3.4,0.6-6.1,1.8-8.3
	c1.2-2.2,3.1-3.9,5.6-5.1c2.5-1.2,5.7-2.1,9.5-2.6c3.8-0.5,8.4-0.7,13.8-0.7h1.9c0-1-0.1-2-0.3-2.8c-0.2-0.8-0.7-1.5-1.3-2
	c-0.7-0.5-1.6-0.9-2.9-1.2c-1.3-0.3-2.9-0.4-5-0.4c-2,0-3.9,0.2-5.6,0.6c-1.7,0.4-3.3,0.9-4.7,1.5c-0.8,0.3-1.5,0.6-2.2,1
	c-0.7,0.4-1.4,0.8-2.1,1.1l-1.4,0.9c-0.1,0.1-0.2,0.2-0.4,0.3c0,0-0.1,0.1-0.1,0.1c0,0-0.1,0-0.1,0.1l-0.1,0.1
	c-0.4,0.2-0.7,0.2-1,0.1c-0.3-0.1-0.6-0.4-0.9-0.9l-3.7-6.9c-0.4-0.6-0.6-1.1-0.6-1.5c0-0.4,0.3-0.8,0.8-1.2l0.6-0.4
	c2.4-1.7,4.8-2.9,7.2-3.8c2.4-0.9,5-1.5,7.9-2c2.4-0.4,5-0.6,7.8-0.6c4.3,0,7.8,0.4,10.5,1.1c2.7,0.7,4.8,1.8,6.3,3.4
	c1.5,1.5,2.6,3.5,3.1,5.9c0.5,2.4,0.8,5.3,0.8,8.7v14.5c0,1.1,0,1.9,0,2.4c0,0.6,0.1,1,0.2,1.3c0.2,0.3,0.4,0.5,0.7,0.6
	c0.3,0.1,0.8,0.1,1.5,0.1v0.1c0.4,0.1,0.7,0.2,0.9,0.4c0.2,0.2,0.3,0.7,0.3,1.3V66.6z M365.7,46.2h-1.1c-4.2,0-7.6,0.1-10.1,0.3
	c-2.5,0.2-4.4,0.5-5.7,1c-1.3,0.5-2.2,1.2-2.6,2c-0.4,0.8-0.6,1.9-0.6,3.2c0,1.8,0.6,3.3,1.7,4.5c1.2,1.2,3.3,1.7,6.3,1.7
	c4.2,0,7.2-0.9,9.1-2.8c1.9-1.9,2.9-4.6,2.9-8.1V46.2z"/>
<path class="st0" d="M410.2,56.1c0.4,0.4,0.7,0.9,0.7,1.5v8.9c0,0.6-0.2,1.1-0.7,1.6c-0.5,0.4-1,0.6-1.7,0.6h-5.6h-0.1h-9.3
	c-0.8,0-1.4-0.2-1.9-0.7c-0.5-0.5-0.8-1-0.8-1.7v-5v-0.1V15V9.3c0-0.6,0.2-1.1,0.7-1.5c0.5-0.4,1-0.6,1.7-0.6h10.1
	c0.7,0,1.2,0.2,1.7,0.6c0.4,0.4,0.7,0.9,0.7,1.5v10.2v31.7c0,1.7,0,2.8,0.1,3.4c0.1,0.6,0.7,0.9,1.9,0.9h0.8h0.1
	C409.2,55.5,409.7,55.7,410.2,56.1z"/>
<path class="st0" d="M481.1,68.4c0,0.5-0.2,0.9-0.6,1.2c-0.4,0.3-0.8,0.5-1.3,0.5h-7.9c-0.5,0-1,0-1.3-0.1c-0.4-0.1-0.6-0.3-0.6-0.8
	v-1.7c-1.5,0.6-3.2,1.2-5.1,1.8c-1.9,0.6-4,0.9-6.4,0.9c-4,0-7.3-0.4-10.1-1.3c-2.8-0.9-5-2.1-6.7-3.7c-1.7-1.6-3-3.7-3.8-6.1
	c-0.8-2.4-1.2-5.2-1.2-8.4c0-3.2,0.4-6,1.2-8.4c0.8-2.4,2.1-4.5,3.9-6.2c1.8-1.7,4-2.9,6.8-3.8c2.8-0.9,6.1-1.3,10.1-1.3
	c2.3,0,4.4,0.1,6.3,0.4c1.8,0.3,3.5,0.7,4.9,1.3v-15h0.1c0-0.4,0.2-0.8,0.6-1.1c0.3-0.3,0.8-0.5,1.3-0.5h8c0.5,0,0.9,0.2,1.3,0.5
	c0.3,0.3,0.5,0.7,0.6,1.1v0.1v0.1v4.7v0.1v43.1V68.4z M457.5,61.3c4.1,0,7.1-0.9,9.2-2.8c2.1-1.9,3.1-4.4,3.1-7.6
	c0-1.6-0.2-3.1-0.5-4.4c-0.3-1.3-0.9-2.5-1.6-3.4c-0.8-0.9-1.8-1.7-3.2-2.2c-1.3-0.5-3-0.8-5-0.8c-2,0-3.8,0.3-5.3,0.8
	c-1.5,0.5-2.8,1.3-3.9,2.2c-1,1-1.8,2.1-2.3,3.4c-0.5,1.3-0.8,2.8-0.8,4.4c0,1.6,0.2,3,0.5,4.3c0.3,1.3,0.9,2.4,1.6,3.3
	c0.8,0.9,1.8,1.6,3.2,2.1C453.8,61.1,455.4,61.3,457.5,61.3z"/>
<path class="st0" d="M508.7,31c3,0,5.6,0.3,7.7,0.8c2.1,0.6,3.9,1.4,5.2,2.4c1.4,1,2.4,2.2,3.2,3.7c0.8,1.4,1.3,3,1.7,4.7
	c0.4,1.7,0.6,3.6,0.6,5.5c0,2,0,4,0,6.1h-28.8c0.2,1.1,0.4,2.1,0.9,3.1c0.4,0.9,1,1.7,1.8,2.4c0.8,0.7,1.8,1.2,3.1,1.5
	c1.2,0.4,2.8,0.5,4.7,0.5c1.6,0,2.9-0.1,4-0.2c1.1-0.1,2-0.4,2.8-0.6c0.8-0.3,1.6-0.6,2.2-1c0.7-0.4,1.4-0.8,2.2-1.4
	c0.4-0.3,0.9-0.5,1.3-0.4c0.4,0,0.8,0.3,1.1,0.7l3.2,4.2c0.5,0.6,0.8,1,0.9,1.3c0.1,0.3-0.2,0.7-0.9,1.2c-0.1,0.1-0.2,0.1-0.2,0.2
	c-1.3,0.9-2.5,1.6-3.7,2.2c-1.1,0.6-2.3,1-3.6,1.4c-1.3,0.4-2.6,0.6-4.1,0.8c-1.5,0.1-3.2,0.2-5.2,0.2c-4.5,0-8.1-0.5-10.9-1.6
	c-2.8-1-5-2.5-6.6-4.2c-1.6-1.8-2.6-3.9-3.2-6.2c-0.6-2.4-0.9-4.9-0.9-7.6c0-2.6,0.3-5.1,0.9-7.5c0.6-2.4,1.7-4.4,3.2-6.2
	c1.6-1.8,3.8-3.2,6.6-4.3C500.6,31.5,504.2,31,508.7,31z M516.6,46.7c-0.1-1.1-0.2-2.1-0.4-3c-0.2-0.9-0.6-1.7-1.2-2.3
	c-0.6-0.7-1.4-1.2-2.5-1.5c-1.1-0.4-2.5-0.6-4.3-0.6s-3.3,0.2-4.5,0.5c-1.2,0.4-2.2,0.8-3,1.5c-0.8,0.6-1.4,1.4-1.8,2.3
	c-0.4,0.9-0.7,1.9-0.8,3.1H516.6z"/>
<path class="st0" d="M574.7,58.2c0.5,0.4,0.7,0.9,0.7,1.5v9.5c0,0.7-0.2,1.2-0.7,1.7c-0.5,0.5-1.1,0.7-1.8,0.7h-5.9H567h-9.8
	c-0.8,0-1.5-0.2-2-0.8c-0.6-0.5-0.8-1.1-0.8-1.8v-5.3v-0.1v-39v-6.1c0-0.6,0.2-1.1,0.7-1.6c0.5-0.5,1.1-0.7,1.8-0.7h10.7
	c0.7,0,1.3,0.2,1.8,0.7c0.5,0.5,0.7,1,0.7,1.6v10.8v23.6c0,1.8,0.1,3,0.2,3.6c0.1,0.7,0.8,1,2,1h0.8h0.1
	C573.7,57.5,574.3,57.7,574.7,58.2z"/>
<path class="st0" d="M594.3,17.5c0.4,0.4,0.6,0.8,0.6,1.2v5.2v3.7v0.8c0,0.8-0.1,1.7-0.3,2.6c-0.2,0.9-0.6,1.9-1.1,2.8
	c-0.6,0.9-1.3,1.9-2.3,2.8c-1,0.9-2.3,1.8-3.8,2.7c-0.2,0.1-0.3,0.1-0.4,0.2c-0.1,0-0.2,0.1-0.4,0.2l-0.9,0.4
	c-0.3,0.2-0.6,0.2-0.9,0.1c-0.3-0.1-0.5-0.3-0.7-0.6l-1.6-3.5c-0.2-0.3-0.2-0.6,0-0.9c0.2-0.3,0.4-0.5,0.7-0.7l0.9-0.5
	c0.9-0.4,1.6-0.7,2.1-1.1c0.5-0.4,0.9-0.8,1.2-1.3c0.3-0.4,0.4-0.8,0.5-1.3c0.1-0.4,0.1-0.8,0.1-1.2h-4.5c-0.5,0-1-0.2-1.4-0.5
	c-0.4-0.3-0.6-0.7-0.6-1.2v-8.9c0-0.5,0.2-0.9,0.6-1.2c0.4-0.4,0.8-0.5,1.4-0.5h9.6C593.5,16.9,594,17.1,594.3,17.5z"/>
<path class="st0" d="M633.8,18.6c4.1,0,7.6,0.4,10.4,1.1c2.9,0.8,5.2,1.8,7.1,3.2c1.9,1.4,3.3,3,4.3,5c1,1.9,1.8,4,2.3,6.4
	c0.5,2.3,0.7,4.8,0.8,7.5c0,2.6,0,5.4,0,8.2h-39c0.2,1.5,0.6,2.9,1.2,4.2c0.6,1.3,1.4,2.3,2.5,3.2c1.1,0.9,2.5,1.6,4.2,2.1
	c1.7,0.5,3.8,0.7,6.3,0.7c2.2,0,4-0.1,5.4-0.3c1.5-0.2,2.7-0.5,3.9-0.9c1.1-0.4,2.1-0.8,3-1.4c0.9-0.5,1.9-1.1,2.9-1.9
	c0.6-0.5,1.2-0.7,1.8-0.6c0.6,0,1.1,0.4,1.5,0.9l4.4,5.7c0.7,0.8,1.1,1.4,1.2,1.8c0.2,0.4-0.3,0.9-1.3,1.6c-0.1,0.1-0.2,0.2-0.3,0.2
	c-1.8,1.2-3.4,2.2-5,3c-1.5,0.8-3.2,1.4-4.9,1.9c-1.7,0.5-3.6,0.8-5.6,1c-2,0.2-4.4,0.3-7.1,0.3c-6.1,0-11-0.7-14.8-2.1
	c-3.8-1.4-6.8-3.3-8.9-5.7c-2.1-2.4-3.6-5.2-4.3-8.4c-0.8-3.2-1.2-6.6-1.2-10.2c0-3.5,0.4-6.9,1.2-10.1c0.8-3.2,2.2-6,4.4-8.4
	c2.1-2.4,5.1-4.3,8.9-5.8C622.9,19.3,627.8,18.6,633.8,18.6z M644.6,39.9c-0.1-1.5-0.3-2.8-0.6-4c-0.3-1.2-0.8-2.3-1.6-3.2
	c-0.8-0.9-1.9-1.6-3.3-2.1c-1.4-0.5-3.4-0.8-5.8-0.8c-2.4,0-4.4,0.2-6,0.7c-1.6,0.5-3,1.2-4,2c-1.1,0.9-1.9,1.9-2.4,3.1
	c-0.5,1.2-0.9,2.6-1.1,4.2H644.6z"/>
<path class="st0" d="M622.9,18c-0.6,0.3-1.2,0.4-1.8,0.3c-0.6-0.1-1-0.4-1.2-0.8l-2.9-5.6c-0.2-0.5-0.2-1,0-1.5
	c0.3-0.5,0.7-1,1.3-1.3l16.7-8.7c0.6-0.3,1.2-0.4,1.8-0.3c0.6,0.1,1.1,0.4,1.3,0.8l2.9,5.6c0.2,0.4,0.2,0.9-0.1,1.5
	c-0.3,0.6-0.7,1-1.3,1.3L622.9,18z"/>
<path class="st0" d="M712.1,45.6c0-4.3,0.5-8.1,1.6-11.4c1.1-3.3,2.9-6.2,5.3-8.4c2.4-2.3,5.5-4,9.3-5.2c3.8-1.2,8.4-1.8,13.9-1.8
	c5.4,0,10,0.6,13.9,1.8c3.8,1.2,7,2.9,9.4,5.2c2.4,2.3,4.2,5.1,5.3,8.4c1.1,3.3,1.6,7.2,1.6,11.4c0,4.3-0.5,8.2-1.6,11.5
	c-1.1,3.3-2.9,6.2-5.3,8.4c-2.4,2.3-5.6,4-9.4,5.2c-3.8,1.2-8.5,1.8-13.9,1.8c-5.5,0-10.1-0.6-13.9-1.8c-3.8-1.2-6.9-2.9-9.3-5.2
	c-2.4-2.3-4.2-5.1-5.3-8.4C712.6,53.8,712.1,49.9,712.1,45.6z M756.3,46c0-2.2-0.2-4.2-0.7-6c-0.4-1.8-1.2-3.4-2.3-4.6
	c-1.1-1.3-2.5-2.3-4.3-3c-1.8-0.7-4.1-1.1-6.9-1.1c-2.8,0-5,0.4-6.9,1.1c-1.8,0.7-3.3,1.7-4.3,3c-1.1,1.3-1.8,2.8-2.2,4.6
	c-0.4,1.8-0.6,3.8-0.6,6c0,2.2,0.2,4.2,0.6,6c0.4,1.8,1.2,3.4,2.2,4.7c1.1,1.3,2.5,2.3,4.3,3.1c1.8,0.7,4.1,1.1,6.9,1.1
	c2.8,0,5-0.4,6.9-1.1c1.8-0.7,3.3-1.8,4.3-3.1c1.1-1.3,1.8-2.9,2.3-4.7C756.1,50.2,756.3,48.2,756.3,46z"/>
<path class="st0" d="M701.5,31.5c-2.6,0-5,0.3-7.2,1c-2.2,0.7-4.2,1.6-5.8,2.8c-1.6,1.2-2.9,2.7-3.8,4.4c-0.9,1.7-1.4,3.6-1.4,5.7
	c0,2.1,0.5,4,1.4,5.7c0.9,1.7,2.2,3.2,3.8,4.4c1.6,1.2,3.5,2.2,5.8,2.8c2.2,0.7,4.6,1,7.2,1v0.1c1.5,0.2,2.2,0.9,2.2,2.3V69
	c0,0.7-0.2,1.3-0.6,1.7c-0.4,0.4-0.9,0.7-1.6,0.8v0.1h-0.4h-0.1v-0.1c-5,0-9.5-0.6-13.5-1.8c-4-1.2-7.5-2.9-10.4-5.1
	c-2.9-2.3-5.1-5-6.6-8.3c-1.5-3.3-2.3-7.1-2.3-11.3c0-4.2,0.8-7.9,2.3-11.1c1.6-3.2,3.8-6,6.7-8.2c2.9-2.2,6.4-3.9,10.5-5.1
	c4.1-1.2,8.7-1.7,13.7-1.7c0.6,0,1.1,0.2,1.6,0.6c0.4,0.4,0.6,0.8,0.6,1.3v8.5c0,0.8-0.2,1.3-0.5,1.8
	C703,31.3,702.4,31.5,701.5,31.5z"/>
<path class="st0" d="M852.5,6h-54.1c-7.2,0-13.1,5.9-13.1,13.1v39.8c0,7.2,5.9,13.1,13.1,13.1h24.3L841,88.3V72h11.5
	c7.3,0,13.1-5.9,13.1-13.1V19.1C865.6,11.9,859.8,6,852.5,6z"/>
<path class="st1" d="M831.8,16.7c-1.9-0.9-3.6-1.4-5.1-1.4c-2.4,0-4.4,0.7-5.8,2.3c-1.4,1.5-2.2,3.8-2.5,6.7l-1.2,9.8l-2.9,0
	c-0.4,0-0.8,0.3-0.9,0.8l-0.6,5.1c0,0.3,0,0.5,0.2,0.7c0.2,0.2,0.4,0.3,0.7,0.3h2.6l-2.2,17.7c0,0.3,0,0.5,0.2,0.7
	c0.2,0.2,0.4,0.3,0.7,0.3h5.6c0.5,0,0.8-0.3,0.9-0.8l2.2-17.9h4.3c0.4,0,0.8-0.3,0.9-0.8l0.6-5.1c0-0.2,0-0.5-0.2-0.7
	c-0.2-0.2-0.4-0.3-0.7-0.3h-4l1-8.1c0.2-1.8,0.6-3,0.9-3.4c0.3-0.4,0.7-0.6,1.5-0.6c0.6,0,1.4,0.3,2.3,1.1c0.3,0.2,0.6,0.3,0.9,0.1
	c0.3-0.1,0.5-0.4,0.5-0.7l0.6-4.9C832.4,17.2,832.2,16.9,831.8,16.7z M853.2,35.9c-1.5-1.1-3.3-1.7-5.1-1.7c-1.6,0-3.1,0.4-4.6,1.2
	l0-0.2c0-0.3,0-0.5-0.2-0.7c-0.2-0.2-0.4-0.3-0.7-0.3h-5.6c-0.4,0-0.8,0.3-0.9,0.8l-2.9,23.8c0,0.3,0,0.5,0.2,0.7
	c0.2,0.2,0.4,0.3,0.7,0.3h5.6c0.5,0,0.8-0.3,0.9-0.8l1.5-12c0.1-1.3,0.3-2.4,0.6-3.3c0.2-0.9,0.5-1.6,0.9-2.1c0.3-0.5,0.7-0.8,1.1-1
	c0.4-0.2,0.9-0.3,1.5-0.3c0.8,0,1.6,0.3,2.5,1.1c0.4,0.3,0.9,0.3,1.2-0.1l3.6-4c0.2-0.2,0.2-0.4,0.2-0.7
	C853.6,36.3,853.4,36,853.2,35.9z"/>
<circle class="st1" cx="803" cy="55.7" r="4.3"/>
</svg>
