<?xml version="1.0" encoding="utf-8"?>
<!-- Generator: Adobe Illustrator 16.0.3, SVG Export Plug-In . SVG Version: 6.00 Build 0)  -->
<!DOCTYPE svg PUBLIC "-//W3C//DTD SVG 1.1//EN" "http://www.w3.org/Graphics/SVG/1.1/DTD/svg11.dtd">
<svg version="1.1" id="Calque_1" xmlns="http://www.w3.org/2000/svg" xmlns:xlink="http://www.w3.org/1999/xlink" x="0px" y="0px"
	 width="218px" height="23.375px" viewBox="0 0 218 23.375" enable-background="new 0 0 218 23.375" xml:space="preserve">
<path fill="#F7A70E" d="M148.275,6.22c4.655,0,7.504,3.179,7.504,7.233c0,5.124-3.678,9.887-9.671,9.887
	c-4.907,0-7.702-2.655-7.702-7.165C138.403,10.89,142.13,6.22,148.275,6.22 M146.108,21.509c4.759,0,7.275-4.165,7.275-8.059
	c0-3.021-1.786-5.4-5.108-5.4c-5.011,0-7.48,4.188-7.48,8.125C140.797,19.335,142.507,21.509,146.108,21.509"/>
<path fill="#F7A70E" d="M171.359,16.404c-0.303,1.261-0.601,2.496-0.906,3.135c-1.21,2.702-3.955,3.801-7,3.801
	c-5.26,0-7.552-2.563-6.521-7.119l2.244-9.611h2.39l-2.369,10.161c-0.802,3.16,0.785,4.738,4.257,4.738
	c3.927,0,4.786-2.035,5.492-5.104l2.265-9.794h2.391L171.359,16.404z"/>
<polygon fill="#F7A70E" points="176.195,6.61 188.583,6.61 188.18,8.439 178.182,8.439 176.976,13.635 186.291,13.635 
	185.889,15.468 176.546,15.468 175.238,21.121 185.36,21.121 184.907,22.95 172.395,22.95 "/>
<path fill="#F7A70E" d="M199.406,11.438c0.076-2.587-1.661-3.387-4.127-3.387c-1.762,0-4.155,0.734-4.155,2.677
	c0,1.581,1.284,2.22,2.923,2.635l2.417,0.596c2.242,0.548,4.329,1.489,4.329,4.416c0,3.362-3.75,4.966-6.998,4.966
	c-4.332,0-7.377-1.742-7.075-5.745h2.393c-0.153,2.952,1.861,3.914,4.782,3.914c2.242,0,4.507-0.937,4.507-3.134
	c0-1.67-1.433-2.267-3.197-2.7l-2.439-0.597c-2.142-0.524-4.029-1.714-4.029-4.118c0-3.158,3.347-4.737,6.544-4.737
	c3.551,0,6.647,1.578,6.523,5.216L199.406,11.438L199.406,11.438z"/>
<polygon fill="#F7A70E" points="217.385,8.439 211.342,8.439 207.969,22.95 205.579,22.95 208.95,8.439 202.909,8.439 203.336,6.61 
	217.838,6.61 "/>
<path fill="#FFFFFF" d="M7.624,6.678h3.448v3H7.624v8.083c0,1.101,0.35,1.562,0.935,1.794c2.673,1.145,2.513,3.088,2.513,3.088
	c-0.785,0.306-1.824,0.546-2.751,0.546c-2.884,0-5.404-0.631-5.404-3.882V9.676h-2.85V6.678h2.851V6.496
	c0-4.253,4.707-4.712,4.707-4.712V6.678L7.624,6.678z"/>
<path fill="#FFFFFF" d="M59.91,20.917h-0.066c-1.096,1.768-3.018,2.529-5.206,2.529c-5.171,0-7.691-4.232-7.691-8.748
	c0-4.389,2.553-8.464,7.591-8.464c2.023,0,4.014,0.822,5.108,2.433H59.61h0.069v-3.49c0-4.989,4.707-4.72,4.707-4.72v22.547H59.91
	V20.917z M55.801,9.615c-3.085,0-4.147,2.524-4.147,5.209c0,2.56,1.229,5.24,4.147,5.24c3.113,0,4.043-2.588,4.043-5.271
	C59.844,12.139,58.849,9.615,55.801,9.615"/>
<path fill="#FFFFFF" d="M66.666,11.698c0.263-4.197,4.209-5.461,8.054-5.461c3.417,0,7.527,0.726,7.527,4.639v8.496
	c0,1.483,0.164,2.969,0.596,3.629c0,0-3.947,0.347-5.105-1.579c-1.238,1.242-3.68,2.023-5.77,2.023
	c-3.248,0-5.835-1.548-5.835-4.896c0-3.693,2.918-4.579,5.835-4.958c2.884-0.411,5.571-0.316,5.571-2.147
	c0-1.926-1.394-2.211-3.051-2.211c-3.607,0-3.837,2.462-7.36,2.462h-0.462V11.698z M77.538,15.015
	c-0.797,0.663-2.454,0.694-3.913,0.947c-1.459,0.284-2.784,0.758-2.784,2.398c0,1.674,1.358,2.083,2.884,2.083
	c3.68,0,3.813-2.777,3.813-3.755V15.015L77.538,15.015z"/>
<path fill="#FFFFFF" d="M84.823,11.102c0-4.575,4.474-4.423,4.474-4.423v2.274h0.099c1.193-1.831,3.25-2.715,5.238-2.715
	c5.007,0,6.266,2.684,6.266,6.728v10.038c0,0-4.708,0.425-4.708-4.004v-5.218c0-2.683-0.83-4.01-3.017-4.01
	c-2.552,0-3.648,1.358-3.648,4.674v3.874c0,3.881-4.706,4.684-4.706,4.684V11.102H84.823z"/>
<path fill="#FFFFFF" d="M29.444,11.102c0-4.575,4.476-4.423,4.476-4.423v2.274h0.1c1.193-1.831,3.248-2.715,5.238-2.715
	c5.005,0,6.265,2.684,6.265,6.728v10.038c0,0-4.707,0.425-4.707-4.004v-5.218c0-2.683-0.83-4.01-3.018-4.01
	c-2.553,0-3.646,1.358-3.646,4.674v3.874c0,3.881-4.709,4.684-4.709,4.684L29.444,11.102L29.444,11.102z"/>
<path fill="#FFFFFF" d="M113.688,10.437c-0.984-0.611-1.825-0.822-2.87-0.822c-3.018,0-4.014,2.905-4.014,5.304
	c0,2.339,0.964,5.146,3.913,5.146c1.008,0,1.67-0.21,2.816-0.772c1.148-0.564,2.174-2.718,5.472-2.541
	c-0.561,4.077-3.746,6.696-8.255,6.696c-5.172,0-8.651-3.475-8.651-8.368c0-5.083,3.181-8.841,8.751-8.841
	c4.045,0,7.716,2.091,8.058,6.187C116.509,12.596,114.677,11.046,113.688,10.437"/>
<path fill="#FFFFFF" d="M15.792,15.932c0.131,2.841,1.593,4.138,4.212,4.138c0.945,0,1.8-0.274,2.456-0.682
	c3.222-1.993,5.404-1.437,5.404-1.437c-1.327,3.854-4.145,5.496-8.025,5.496c-5.404,0-8.753-3.537-8.753-8.592
	c0-4.895,3.548-8.62,8.753-8.62c4.343,0,6.842,2.413,7.788,5.805c0.429,1.962,0.276,3.889-4.422,3.889h-7.413V15.932z M22.3,13.09
	c1.312,0,0.965-0.824,0.836-1.178c-0.551-1.508-1.578-2.296-3.431-2.296c-2.984,0-3.846,2.212-3.913,3.474H22.3z"/>
<path fill="#FFFFFF" d="M124.833,15.932c0.131,2.841,1.593,4.138,4.213,4.138c0.943,0,1.799-0.274,2.457-0.682
	c3.222-1.993,5.401-1.437,5.401-1.437c-1.328,3.854-4.145,5.496-8.023,5.496c-5.403,0-8.752-3.537-8.752-8.592
	c0-4.895,3.548-8.62,8.752-8.62c4.341,0,6.841,2.413,7.788,5.805c0.427,1.962,0.276,3.889-4.424,3.889h-7.412V15.932z
	 M131.344,13.09c1.312,0,0.963-0.824,0.836-1.178c-0.552-1.508-1.578-2.296-3.432-2.296c-2.984,0-3.845,2.212-3.915,3.474H131.344z"
	/>
</svg>
